<svg xmlns="http://www.w3.org/2000/svg" viewBox="0 0 18 5" shape-rendering="crispEdges" role="img" aria-label="blanket"><rect x="1" y="0" width="16" height="1" fill="#191426"/><rect x="0" y="1" width="1" height="1" fill="#191426"/><rect x="1" y="1" width="1" height="1" fill="#5E3350"/><rect x="2" y="1" width="2" height="1" fill="#8C2F4A"/><rect x="4" y="1" width="2" height="1" fill="#5E3350"/><rect x="6" y="1" width="2" height="1" fill="#8C2F4A"/><rect x="8" y="1" width="2" height="1" fill="#5E3350"/><rect x="10" y="1" width="2" height="1" fill="#8C2F4A"/><rect x="12" y="1" width="2" height="1" fill="#5E3350"/><rect x="14" y="1" width="2" height="1" fill="#8C2F4A"/><rect x="16" y="1" width="1" height="1" fill="#5E3350"/><rect x="17" y="1" width="1" height="1" fill="#191426"/><rect x="0" y="2" width="1" height="1" fill="#191426"/><rect x="1" y="2" width="1" height="1" fill="#8C2F4A"/><rect x="2" y="2" width="2" height="1" fill="#5E3350"/><rect x="4" y="2" width="2" height="1" fill="#8C2F4A"/><rect x="6" y="2" width="2" height="1" fill="#5E3350"/><rect x="8" y="2" width="2" height="1" fill="#8C2F4A"/><rect x="10" y="2" width="2" height="1" fill="#5E3350"/><rect x="12" y="2" width="2" height="1" fill="#8C2F4A"/><rect x="14" y="2" width="2" height="1" fill="#5E3350"/><rect x="16" y="2" width="1" height="1" fill="#8C2F4A"/><rect x="17" y="2" width="1" height="1" fill="#191426"/><rect x="0" y="3" width="1" height="1" fill="#191426"/><rect x="1" y="3" width="1" height="1" fill="#2A2230"/><rect x="2" y="3" width="2" height="1" fill="#8C2F4A"/><rect x="4" y="3" width="2" height="1" fill="#2A2230"/><rect x="6" y="3" width="2" height="1" fill="#8C2F4A"/><rect x="8" y="3" width="2" height="1" fill="#2A2230"/><rect x="10" y="3" width="2" height="1" fill="#8C2F4A"/><rect x="12" y="3" width="2" height="1" fill="#2A2230"/><rect x="14" y="3" width="2" height="1" fill="#8C2F4A"/><rect x="16" y="3" width="1" height="1" fill="#2A2230"/><rect x="17" y="3" width="1" height="1" fill="#191426"/><rect x="1" y="4" width="16" height="1" fill="#191426"/></svg>