<svg xmlns="http://www.w3.org/2000/svg" viewBox="0 0 18 5" shape-rendering="crispEdges" role="img" aria-label="blanket"><rect x="1" y="0" width="16" height="1" fill="#5E3350"/><rect x="0" y="1" width="1" height="1" fill="#5E3350"/><rect x="1" y="1" width="2" height="1" fill="#8C2F4A"/><rect x="3" y="1" width="2" height="1" fill="#5E3350"/><rect x="5" y="1" width="2" height="1" fill="#8C2F4A"/><rect x="7" y="1" width="2" height="1" fill="#5E3350"/><rect x="9" y="1" width="2" height="1" fill="#8C2F4A"/><rect x="11" y="1" width="2" height="1" fill="#5E3350"/><rect x="13" y="1" width="2" height="1" fill="#8C2F4A"/><rect x="15" y="1" width="3" height="1" fill="#5E3350"/><rect x="0" y="2" width="3" height="1" fill="#5E3350"/><rect x="3" y="2" width="2" height="1" fill="#8C2F4A"/><rect x="5" y="2" width="2" height="1" fill="#5E3350"/><rect x="7" y="2" width="2" height="1" fill="#8C2F4A"/><rect x="9" y="2" width="2" height="1" fill="#5E3350"/><rect x="11" y="2" width="2" height="1" fill="#8C2F4A"/><rect x="13" y="2" width="2" height="1" fill="#5E3350"/><rect x="15" y="2" width="2" height="1" fill="#8C2F4A"/><rect x="17" y="2" width="1" height="1" fill="#5E3350"/><rect x="0" y="3" width="1" height="1" fill="#5E3350"/><rect x="1" y="3" width="2" height="1" fill="#8C2F4A"/><rect x="3" y="3" width="2" height="1" fill="#5E3350"/><rect x="5" y="3" width="2" height="1" fill="#8C2F4A"/><rect x="7" y="3" width="2" height="1" fill="#5E3350"/><rect x="9" y="3" width="2" height="1" fill="#8C2F4A"/><rect x="11" y="3" width="2" height="1" fill="#5E3350"/><rect x="13" y="3" width="2" height="1" fill="#8C2F4A"/><rect x="15" y="3" width="3" height="1" fill="#5E3350"/><rect x="1" y="4" width="16" height="1" fill="#5E3350"/></svg>